<svg width="28" height="28" viewBox="0 0 28 28" fill="none" xmlns="http://www.w3.org/2000/svg">
<path fill-rule="evenodd" clip-rule="evenodd" d="M0.531742 10.1582L26.8046 0.084315C26.9543 0.0101884 27.123 -0.0170882 27.2885 0.00606114C27.454 0.0292105 27.6087 0.101705 27.7322 0.214041C27.8557 0.326377 27.9422 0.473312 27.9806 0.63558C28.0189 0.797849 28.0071 0.967878 27.9469 1.12338L17.8947 27.4668C17.8371 27.6183 17.7363 27.7497 17.6046 27.8445C17.4729 27.9394 17.3162 27.9936 17.1539 28.0003C16.9916 28.0071 16.8308 27.9662 16.6916 27.8827C16.5524 27.7992 16.4409 27.6768 16.3708 27.5306L12.3203 19.1725L20.3597 7.69499L8.87508 15.6908L0.470058 11.6758C0.324111 11.6058 0.201892 11.4948 0.118483 11.3563C0.0350731 11.2179 -0.00587847 11.0581 0.000680853 10.8968C0.00724017 10.7354 0.0610233 10.5795 0.155394 10.4482C0.249766 10.317 0.380595 10.2162 0.531742 10.1582Z" fill="#064D51"/>
</svg>
